<?xml version="1.0" encoding="UTF-8" standalone="no"?>
<!-- Created with Inkscape (http://www.inkscape.org/) -->

<svg
   xmlns:dc="http://purl.org/dc/elements/1.1/"
   xmlns:cc="http://creativecommons.org/ns#"
   xmlns:rdf="http://www.w3.org/1999/02/22-rdf-syntax-ns#"
   xmlns:svg="http://www.w3.org/2000/svg"
   xmlns="http://www.w3.org/2000/svg"
   xmlns:sodipodi="http://sodipodi.sourceforge.net/DTD/sodipodi-0.dtd"
   xmlns:inkscape="http://www.inkscape.org/namespaces/inkscape"
   width="210mm"
   height="297mm"
   viewBox="0 0 210 297"
   version="1.1"
   id="svg8"
   inkscape:version="0.92.1 r15371"
   sodipodi:docname="рисунок.svg">
  <defs
     id="defs2">
    <filter
       inkscape:collect="always"
       style="color-interpolation-filters:sRGB"
       id="filter4857"
       x="-0.028681481"
       width="1.057363"
       y="-0.028919503"
       height="1.057839">
      <feGaussianBlur
         inkscape:collect="always"
         stdDeviation="2.1952856"
         id="feGaussianBlur4859" />
    </filter>
    <filter
       inkscape:collect="always"
       style="color-interpolation-filters:sRGB"
       id="filter8873"
       x="-0.67294028"
       width="2.3458806"
       y="-0.68313638"
       height="2.3662728">
      <feGaussianBlur
         inkscape:collect="always"
         stdDeviation="28.403021"
         id="feGaussianBlur8875" />
    </filter>
    <filter
       inkscape:collect="always"
       style="color-interpolation-filters:sRGB"
       id="filter8921"
       x="-0.51169737"
       width="2.0233947"
       y="-0.53272603"
       height="2.0654521">
      <feGaussianBlur
         inkscape:collect="always"
         stdDeviation="12.249263"
         id="feGaussianBlur8923" />
    </filter>
    <filter
       inkscape:collect="always"
       style="color-interpolation-filters:sRGB"
       id="filter8969"
       x="-0.055074576"
       width="1.1101492"
       y="-0.057790792"
       height="1.1155816">
      <feGaussianBlur
         inkscape:collect="always"
         stdDeviation="2.1518391"
         id="feGaussianBlur8971" />
    </filter>
  </defs>
  <sodipodi:namedview
     id="base"
     pagecolor="#ffffff"
     bordercolor="#666666"
     borderopacity="1.0"
     inkscape:pageopacity="0.0"
     inkscape:pageshadow="2"
     inkscape:zoom="0.35"
     inkscape:cx="-248.57143"
     inkscape:cy="560"
     inkscape:document-units="mm"
     inkscape:current-layer="layer1"
     showgrid="false"
     inkscape:window-width="1920"
     inkscape:window-height="1018"
     inkscape:window-x="-32000"
     inkscape:window-y="-32000"
     inkscape:window-maximized="0" />
  <metadata
     id="metadata5">
    <rdf:RDF>
      <cc:Work
         rdf:about="">
        <dc:format>image/svg+xml</dc:format>
        <dc:type
           rdf:resource="http://purl.org/dc/dcmitype/StillImage" />
        <dc:title></dc:title>
      </cc:Work>
    </rdf:RDF>
  </metadata>
  <g
     inkscape:label="Layer 1"
     inkscape:groupmode="layer"
     id="layer1">
    <ellipse
       style="fill:#24221c;fill-opacity:1;stroke:#ffffff;stroke-width:0.725;stroke-miterlimit:4;stroke-dasharray:none;stroke-opacity:1;filter:url(#filter4857)"
       id="path3942"
       cx="-300.49106"
       cy="171.88988"
       rx="91.848213"
       ry="91.092255" />
    <ellipse
       style="fill:#ffffff;fill-opacity:1;stroke:#ffffff;stroke-width:0.72499996;stroke-miterlimit:4;stroke-dasharray:none;stroke-opacity:1;filter:url(#filter8873)"
       id="path8535"
       cx="-288.01788"
       cy="144.29762"
       rx="50.648811"
       ry="49.892857" />
    <ellipse
       style="fill:#ffffff;fill-opacity:1;stroke:#ffffff;stroke-width:0.72499996;stroke-miterlimit:4;stroke-dasharray:none;stroke-opacity:1;filter:url(#filter8921)"
       id="path8879"
       cx="-280.45834"
       cy="146.94345"
       rx="28.726189"
       ry="27.59226" />
    <path
       sodipodi:type="star"
       style="fill:#ff6600;fill-opacity:1;stroke:#ffffff;stroke-width:0.72499996;stroke-miterlimit:4;stroke-dasharray:none;stroke-opacity:1;filter:url(#filter8969)"
       id="path8931"
       sodipodi:sides="5"
       sodipodi:cx="-174.625"
       sodipodi:cy="24.101186"
       sodipodi:r1="49.299458"
       sodipodi:r2="9.0029879"
       sodipodi:arg1="2.1928284"
       sodipodi:arg2="2.3826657"
       inkscape:flatsided="false"
       inkscape:rounded="0"
       inkscape:randomized="0"
       d="m -203.35119,64.166662 22.19385,-33.87013 -40.44907,-21.1346659 39.07068,10.6411619 7.60081,-45.000325 1.95316,40.44673 45.14663,-6.6770639 -37.86356,14.3562919 20.30134,40.873672 -25.35413,-31.574053 z"
       inkscape:transform-center-x="-0.39509415"
       inkscape:transform-center-y="0.05309601" />
    <path
       style="fill:none;stroke:#000000;stroke-width:0.26458332px;stroke-linecap:butt;stroke-linejoin:miter;stroke-opacity:1"
       d="m -181.15734,30.296532 c -1.83823,0.616773 -6.71946,2.438887 -9.34266,2.876087 -0.99422,0.165703 -2.06759,-0.318738 -3.02381,0 -0.33807,0.112692 -0.45944,0.558279 -0.75595,0.755952 -0.50397,0.251984 -1.00794,0.503968 -1.5119,0.755951 -0.25199,0 -0.53058,-0.112688 -0.75596,0 -0.31873,0.15937 -0.43721,0.596586 -0.75595,0.755955 -0.4028,0.201398 -1.1091,-0.201401 -1.5119,0 -0.63748,0.318735 -0.87443,1.193165 -1.51191,1.511903 -0.22538,0.112691 -0.5169,-0.07968 -0.75595,0 -0.53454,0.178181 -0.97737,0.577773 -1.51191,0.755954 -0.23905,0.07968 -0.57777,-0.178181 -0.75595,0 -0.17818,0.178179 0.17818,0.577771 0,0.755952 -0.17818,0.178178 -0.53057,-0.112692 -0.75595,0 -0.31874,0.159369 -0.43722,0.596582 -0.75595,0.755951 -0.22538,0.112692 -0.57777,-0.178178 -0.75596,0 -0.17817,0.178181 0.22539,0.643263 0,0.755952 -0.45076,0.225383 -1.06114,-0.22538 -1.5119,0 -0.22538,0.112691 0.17818,0.577773 0,0.755954 -0.39842,0.39842 -1.04308,0.443405 -1.5119,0.755952 -0.59302,0.395346 -0.87443,1.193168 -1.51191,1.511906 -0.45076,0.22538 -1.15554,-0.356362 -1.5119,0 -0.17818,0.178178 0.22538,0.64326 0,0.755951 -0.45077,0.22538 -1.0338,-0.159369 -1.51191,0 -0.67614,0.22538 -0.87443,1.193168 -1.5119,1.511904 -0.45077,0.225382 -1.06115,-0.22538 -1.51191,0 -0.31873,0.159369 -0.50397,0.50397 -0.75595,0.755954 -0.50397,0 -1.0338,-0.159369 -1.51191,0 -0.67614,0.22538 -0.87443,1.193165 -1.5119,1.511903 -0.22538,0.112691 -0.53057,-0.112691 -0.75595,0 -0.31874,0.159369 -0.41788,0.643263 -0.75596,0.755954 -0.4781,0.159367 -1.06114,-0.225382 -1.5119,0 -0.22538,0.112689 0.11269,0.530569 0,0.755952 -0.15937,0.318738 -0.50397,0.503968 -0.75595,0.755952 -0.25199,0.251983 -0.43722,0.596585 -0.75595,0.755951 -0.22538,0.112692 -0.53058,-0.112688 -0.75596,0 -3.14609,1.573049 0.80814,-0.05219 -0.75595,1.511906 -0.17818,0.178178 -0.53057,-0.112691 -0.75595,0 -0.31874,0.159369 -0.43722,0.596583 -0.75595,0.755952 -0.22539,0.112691 -0.57778,-0.178179 -0.75596,0 -1.56409,1.564092 2.39014,-0.06114 -0.75595,1.511906 -2.01587,0 0.25199,-0.251984 -0.75595,0.755951 -0.17818,0.178181 -0.57777,-0.178178 -0.75595,0 -0.17818,0.178181 0.17818,0.577773 0,0.755952 -0.17818,0.178181 -0.53057,-0.112689 -0.75595,0 -0.14471,0.07235 -2.95146,2.879106 -3.02382,3.023812 -0.11268,0.22538 0.17818,0.57777 0,0.755951 -0.17817,0.178179 -0.57777,-0.178181 -0.75595,0 -0.17818,0.178179 0.17818,0.577773 0,0.755952 -0.17818,0.178181 -0.57777,-0.178179 -0.75595,0 -0.17818,0.178181 0.17818,0.577773 0,0.755951 -1.56409,1.564093 0.0611,-2.39014 -1.51191,0.755955 -0.11268,0.22538 0.17819,0.57777 0,0.755951 -0.17817,0.178179 -0.57777,-0.178181 -0.75595,0 -0.17818,0.178179 0.11269,0.530572 0,0.755952 -0.15937,0.318738 -0.59658,0.437216 -0.75595,0.755954 -0.11269,0.22538 0.17818,0.577771 0,0.755952 -0.17818,0.178178 -0.50397,0 -0.75595,0 -0.25199,0.251984 -0.55828,0.459443 -0.75595,0.755951 -0.31255,0.468824 -0.57778,0.977366 -0.75596,1.511906 -0.0797,0.239051 0.17818,0.577771 0,0.755952 -0.17818,0.178178 -0.53057,-0.112691 -0.75595,0 -0.31874,0.159369 -0.50397,0.503968 -0.75595,0.755952 -0.25199,0.251983 -0.59658,0.437216 -0.75595,0.755954 -0.93094,1.861873 2.19433,-0.682427 -0.75596,2.267855 -0.17818,0.178181 -0.57777,-0.178179 -0.75595,0 -0.17818,0.178181 0.17818,0.577773 0,0.755954 -0.17818,0.178178 -0.57777,-0.178181 -0.75595,0 -0.17818,0.178178 0.17818,0.57777 0,0.755951 -0.17818,0.178179 -0.57777,-0.178181 -0.75595,0 -0.39843,0.398423 -0.44341,1.043083 -0.75595,1.511906 -0.19768,0.296508 -0.59659,0.437214 -0.75596,0.755952 -0.11269,0.22538 0.11269,0.530572 0,0.755952 -0.31873,0.637476 -1.19317,0.874429 -1.5119,1.511905 -0.11269,0.22538 0.17818,0.577771 0,0.755952 -0.17818,0.178178 -0.57778,-0.178181 -0.75596,0 -0.17817,0.178178 0.1127,0.530572 0,0.755952 -0.31873,0.637476 -1.11655,0.918887 -1.5119,1.511906 -0.31255,0.46882 -0.35753,1.113483 -0.75595,1.511903 -0.17818,0.178181 -0.57777,-0.178179 -0.75596,0 -0.17817,0.178181 0.17819,0.577773 0,0.755954 -0.17817,0.178178 -0.57777,-0.178181 -0.75595,0 -0.25199,0.251995 0.252,1.259909 0,1.511903 -0.17818,0.178181 -0.57777,-0.178178 -0.75595,0 -0.17818,0.178181 0.11269,0.530572 0,0.755955 -0.11361,0.227229 -1.39829,1.284673 -1.5119,1.511903 -0.22538,0.450762 0.35636,1.155546 0,1.511906 -0.17818,0.178178 -0.57778,-0.178181 -0.75596,0 -0.15454,0.154543 0.14987,1.968127 0,2.267857 -0.15937,0.318736 -0.50396,0.503968 -0.75595,0.755952 -0.25198,0.251984 -0.50397,0.503968 -0.75595,0.755951"
       id="path8977"
       inkscape:connector-curvature="0" />
  </g>
</svg>
